nColumns=19
nRows=65
DataType=double
version=3
OpenSimVersion=4.1
endheader
time	ground_force_calcn_r_vx	ground_force_calcn_r_vy	ground_force_calcn_r_vz	ground_force_calcn_r_px	ground_force_calcn_r_py	ground_force_calcn_r_pz	ground_force_calcn_r_mx	ground_force_calcn_r_my	ground_force_calcn_r_mz	ground_force_calcn_l_vx	ground_force_calcn_l_vy	ground_force_calcn_l_vz	ground_force_calcn_l_px	ground_force_calcn_l_py	ground_force_calcn_l_pz	ground_force_calcn_l_mx	ground_force_calcn_l_my	ground_force_calcn_l_mz
0	-51.8795	382.284	39.3812	0.103486	0	-0.275978	-0.106119	0.781956	0.0805535	0	0	0	0	0	0	0	0	0
0.01	-58.9471	407.574	32.8668	0.10861	0	-0.274034	-0.0509222	0.352088	0.0283924	0	0	0	0	0	0	0	0	0
0.02	-66.5394	436.44	25.5945	0.114794	0	-0.271736	0.00924751	-0.0606555	-0.00355707	0	0	0	0	0	0	0	0	0
0.03	-74.4457	468.566	17.7896	0.121021	0	-0.269466	0.0679635	-0.427766	-0.0162406	0	0	0	0	0	0	0	0	0
0.04	-82.4459	503.623	9.74173	0.127149	0	-0.267303	0.118791	-0.72564	-0.0140363	0	0	0	0	0	0	0	0	0
0.05	-90.3254	541.324	1.72473	0.133071	0	-0.265301	0.157214	-0.942192	-0.00300195	0	0	0	0	0	0	0	0	0
0.06	-97.9024	581.368	-6.05539	0.13871	0	-0.263485	0.181575	-1.07823	0.0112306	0	0	0	0	0	0	0	0	0
0.07	-105.017	623.332	-13.4551	0.144014	0	-0.261856	0.192455	-1.14233	0.024658	0	0	0	0	0	0	0	0	0
0.08	-111.497	666.58	-20.354	0.148951	0	-0.260409	0.191359	-1.14403	0.034933	0	0	0	0	0	0	0	0	0
0.09	-117.159	710.234	-26.6437	0.15351	0	-0.259127	0.180179	-1.09227	0.0409753	0	0	0	0	0	0	0	0	0
0.1	-121.835	753.236	-32.251	0.157703	0	-0.25799	0.161337	-0.997459	0.0427078	0	0	0	0	0	0	0	0	0
0.11	-125.385	794.432	-37.1524	0.161557	0	-0.256969	0.137498	-0.87118	0.0407416	0	0	0	0	0	0	0	0	0
0.12	-127.722	832.674	-41.3628	0.165112	0	-0.256038	0.111116	-0.724408	0.0359847	0	0	0	0	0	0	0	0	0
0.13	-128.826	866.92	-44.9232	0.168419	0	-0.255171	0.084357	-0.567672	0.0294164	0	0	0	0	0	0	0	0	0
0.14	-128.73	896.337	-47.886	0.171532	0	-0.254345	0.0590451	-0.411127	0.0219641	0	0	0	0	0	0	0	0	0
0.15	-127.509	920.365	-50.3001	0.1745	0	-0.253538	0.0366009	-0.264187	0.0144385	0	0	0	0	0	0	0	0	0
0.16	-125.26	938.719	-52.2099	0.177372	0	-0.252736	0.0180651	-0.135383	0.00752975	0	0	0	0	0	0	0	0	0
0.17	-122.099	951.35	-53.6552	0.180184	0	-0.251928	0.00407098	-0.0317196	0.00178896	0	0	0	0	0	0	0	0	0
0.18	-118.146	958.414	-54.6726	0.182965	0	-0.251106	-0.00518231	0.0420394	-0.00239813	0	0	0	0	0	0	0	0	0
0.19	-113.528	960.233	-55.2952	0.185743	0	-0.250268	-0.00990099	0.0837437	-0.0048224	0	0	0	0	0	0	0	0	0
0.2	-108.366	957.257	-55.5549	0.188527	0	-0.249415	-0.0106287	0.0938896	-0.00544893	0	0	0	0	0	0	0	0	0
0.21	-102.776	950.031	-55.4845	0.19133	0	-0.248548	-0.00816345	0.0754605	-0.00440711	0	0	0	0	0	0	0	0	0
0.22	-96.8706	939.161	-55.1211	0.194153	0	-0.247673	-0.00344951	0.033443	-0.00196283	0	0	0	0	0	0	0	0	0
0.23	-90.7534	925.307	-54.507	0.196999	0	-0.246793	0.00255758	-0.0260767	0.0015361	0	0	0	0	0	0	0	0	0
0.24	-84.5161	909.165	-53.6884	0.199863	0	-0.245915	0.00901516	-0.0969788	0.00572683	0	0	0	0	0	0	0	0	0
0.25	-78.2359	891.455	-52.7135	0.20274	0	-0.245045	0.0152799	-0.174106	0.0102953	0	0	0	0	0	0	0	0	0
0.26	-71.9789	872.891	-51.631	0.205624	0	-0.244185	0.0209272	-0.253785	0.0150113	0	0	0	0	0	0	0	0	0
0.27	-65.8038	854.147	-50.4877	0.208504	0	-0.243344	0.0257219	-0.333876	0.019735	0	0	0	0	0	0	0	0	0
0.28	-59.7648	835.831	-49.3293	0.211373	0	-0.242527	0.0295641	-0.413464	0.0244019	0	0	0	0	0	0	0	0	0
0.29	-53.9096	818.467	-48.2004	0.21422	0	-0.241742	0.0324328	-0.492402	0.0289981	0	0	0	0	0	0	0	0	0
0.3	-48.2779	802.494	-47.1471	0.21704	0	-0.240993	0.0343358	-0.570742	0.0335315	0	0	0	0	0	0	0	0	0
0.31	-42.9012	788.27	-46.2182	0.219826	0	-0.240289	0.0352865	-0.648356	0.0380147	0	0	0	0	0	0	0	0	0
0.32	-37.7995	776.078	-45.467	0.222575	0	-0.239632	0.0353048	-0.724858	0.0424663	0	0	0	0	0	0	0	0	0
0.33	-32.9799	766.133	-44.9493	0.225285	0	-0.239026	0.0344357	-0.799952	0.0469335	0	0	0	0	0	0	0	0	0
0.34	-28.4361	758.591	-44.7172	0.227955	0	-0.238475	0.0327567	-0.87385	0.0515114	0	0	0	0	0	0	0	0	0
0.35	-24.1486	753.559	-44.8127	0.230583	0	-0.237981	0.0303665	-0.947587	0.0563511	0	0	0	0	0	0	0	0	0
0.36	-20.0828	751.112	-45.2635	0.233163	0	-0.237546	0.0273536	-1.02304	0.0616507	0	0	0	0	0	0	0	0	0
0.37	-16.1894	751.292	-46.0831	0.235693	0	-0.237172	0.0237646	-1.10283	0.0676458	0	0	0	0	0	0	0	0	0
0.38	-12.4079	754.119	-47.2737	0.238166	0	-0.236861	0.0195814	-1.19011	0.0746045	0	0	0	0	0	0	0	0	0
0.39	-8.6703	759.581	-48.8301	0.240581	0	-0.236609	0.0147051	-1.28827	0.0828175	0	0	0	0	0	0	0	0	0
0.4	-4.90429	767.637	-50.7415	0.242934	0	-0.236413	0.00894793	-1.40056	0.0925784	0	0	0	0	0	0	0	0	0
0.41	-1.03632	778.203	-52.9912	0.245226	0	-0.236269	0.00203709	-1.52971	0.104164	0	0	0	0	0	0	0	0	0
0.42	3.00468	791.143	-55.5533	0.247463	0	-0.23617	-0.00637275	-1.67796	0.117825	0	0	0	0	0	0	0	0	0
0.43	7.28276	806.249	-58.3885	0.249651	0	-0.236109	-0.0166851	-1.84714	0.13377	0	0	0	0	0	0	0	0	0
0.44	11.8504	823.239	-61.4421	0.251804	0	-0.236079	-0.0293473	-2.03874	0.152161	0	0	0	0	0	0	0	0	0
0.45	16.745	841.756	-64.6458	0.253931	0	-0.236077	-0.0448355	-2.25384	0.173092	0	0	0	0	0	0	0	0	0
0.46	21.9895	861.376	-67.9225	0.256046	0	-0.236098	-0.063629	-2.49248	0.196541	0	0	0	0	0	0	0	0	0
0.47	27.5944	881.626	-71.1893	0.258156	0	-0.236144	-0.0861726	-2.75316	0.222312	0	0	0	0	0	0	0	0	0
0.48	33.5602	902.004	-74.3599	0.260269	0	-0.236213	-0.112834	-3.03266	0.250008	0	0	0	0	0	0	0	0	0
0.49	39.8798	921.997	-77.3465	0.262386	0	-0.236308	-0.143869	-3.32616	0.279032	0	0	0	0	0	0	0	0	0
0.5	46.5401	941.1	-80.062	0.264507	0	-0.236434	-0.179394	-3.62757	0.308608	0	0	0	0	0	0	0	0	0
0.51	53.519	958.829	-82.4234	0.266623	0	-0.236594	-0.219359	-3.92996	0.33783	0	0	0	0	0	0	0	0	0
0.52	60.783	974.722	-84.3546	0.268727	0	-0.23679	-0.263523	-4.22589	0.365718	0	0	0	0	0	0	0	0	0
0.53	68.2863	988.329	-85.7887	0.270807	0	-0.237025	-0.311447	-4.50767	0.391274	0	0	0	0	0	0	0	0	0
0.54	75.9698	999.191	-86.6714	0.272852	0	-0.237301	-0.362494	-4.76769	0.413557	0	0	0	0	0	0	0	0	0
0.55	83.7585	1006.83	-86.9649	0.274853	0	-0.237617	-0.415825	-4.99849	0.431743	0	0	0	0	0	0	0	0	0
0.56	91.5608	1010.75	-86.6504	0.2768	0	-0.237972	-0.470399	-5.19281	0.445172	0	0	0	0	0	0	0	0	0
0.57	99.2646	1010.44	-85.7247	0.27869	0	-0.238362	-0.524976	-5.34385	0.453368	1.7277	28.0814	-5.9116	0.677821	0	-0.437564	0.0202765	0.329567	-0.0693793
0.58	106.732	1005.37	-84.193	0.280523	0	-0.238783	-0.578156	-5.44598	0.456065	-0.541163	49.7366	-5.85611	0.716369	0	-0.452084	-0.00508598	0.467436	-0.0550371
0.59	113.794	995.039	-82.0617	0.282301	0	-0.239231	-0.628479	-5.49555	0.453223	-3.85677	76.719	-5.47003	0.735786	0	-0.458928	-0.0257213	0.511649	-0.0364803
0.6	120.253	978.985	-79.3354	0.284032	0	-0.239704	-0.674529	-5.49137	0.445013	-8.41699	109.274	-4.64362	0.748001	0	-0.462885	-0.0397082	0.515514	-0.0219069
0.61	125.885	956.807	-76.0185	0.285726	0	-0.2402	-0.715	-5.43447	0.43177	-14.3818	147.389	-3.25517	0.756765	0	-0.465514	-0.0485247	0.497296	-0.010983
0.62	130.452	928.219	-72.1254	0.287395	0	-0.240715	-0.748704	-5.32732	0.413949	-21.7859	190.771	-1.1756	0.76365	0	-0.46746	-0.0532672	0.46644	-0.00287438
0.63	133.721	893.084	-67.6923	0.289053	0	-0.241247	-0.774539	-5.17294	0.392089	-30.4871	238.861	1.71151	0.769421	0	-0.469034	-0.0548871	0.430031	0.0030813
0.64	135.475	851.459	-62.786	0.290715	0	-0.241792	-0.791447	-4.97423	0.366796	-40.1935	290.886	5.48477	0.774481	0	-0.470395	-0.054385	0.393591	0.00742133
